<svg id="svgmap" width="100000" height="100000" xmlns="http://www.w3.org/2000/svg" xmlns:xlink="http://www.w3.org/1999/xlink">
          <!-- <image id="svgOverlay" class="nopointereventsmap" xlink:href="/assets/images/venues/overlays/great-american-ball-park-mlb_3-2020.png" x="-372.3" y="-103.4" width="1912.1px" height="1358.1px"></image> -->
  <g id="stadium-sections">
    <polygon id="spoly_1" class="is-sec" data-sectionid="1" data-angle="0" points="540.44,694.53 525.89,715.8 545.48,725.03 554.71,700.97 540.44,694.53 540.44,694.53 "></polygon>
    <polygon id="spoly_2" class="is-sec" data-sectionid="2" data-angle="0" points="548.55,726.43 569.53,732.03 572.33,706 557.79,701.8 548.55,726.43 "></polygon>
    <polygon id="spoly_3" class="is-sec" data-sectionid="3" data-angle="0" points="572.89,732.59 574.01,732.59 596.95,732.59 598.35,732.59 595.55,706.28 595.27,706.28 575.97,706.28 575.41,706.28 572.89,732.59 "></polygon>
    <polygon id="spoly_4" class="is-sec" data-sectionid="4" data-angle="0" points="622.41,726.43 601.71,732.03 598.91,706 613.18,701.8 622.41,726.43 "></polygon>
    <polygon id="spoly_5" class="is-sec" data-sectionid="5" data-angle="0" points="630.52,694.53 645.07,715.8 625.48,725.03 616.53,700.97 630.52,694.53 630.52,694.53 "></polygon>
    <polygon id="spoly_22" class="is-sec" data-sectionid="22" data-angle="0" points="560.58,734.83 553.87,764.49 578.77,766.73 579.89,737.06 560.58,734.83 "></polygon>
    <polygon id="spoly_23" class="is-sec" data-sectionid="23" data-angle="0" points="582.12,766.73 610.66,765.61 605.34,736.5 583.24,737.06 582.12,766.73 "></polygon>
    <polygon id="spoly_24" class="is-sec" data-sectionid="24" data-angle="0" points="614.01,764.49 643.11,758.05 629.96,730.63 608.14,735.95 614.01,764.49 "></polygon>
    <polygon id="spoly_25" class="is-sec" data-sectionid="25" data-angle="0" points="646.19,756.93 668.57,746.02 651.22,720.83 633.32,729.51 646.19,756.93 "></polygon>
    <polygon id="spoly_101" class="is-sec" data-sectionid="101" data-angle="0" points="438.61,194.99 428.26,205.36 462.67,241.5 466.59,237.58 473.3,234.22 458.75,190.5 438.61,194.99 "></polygon>
    <polygon id="spoly_102" class="is-sec" data-sectionid="102" data-angle="0" points="425.74,207.6 395.81,237.3 431.9,272.88 460.43,244.02 425.74,207.6 "></polygon>
    <polygon id="spoly_103" class="is-sec" data-sectionid="103" data-angle="0" points="393.57,239.54 363.08,269.8 399.73,305.65 429.38,275.12 393.57,239.54 "></polygon>
    <polygon id="spoly_104" class="is-sec" data-sectionid="104" data-angle="0" points="360.56,272.04 329.79,302.57 367.28,338.15 397.21,307.89 360.56,272.04 "></polygon>
    <polygon id="spoly_105" class="is-sec" data-sectionid="105" data-angle="0" points="327.55,305.09 297.9,334.22 336.5,370.07 337.9,368.11 365.04,340.67 327.55,305.09 "></polygon>
    <polygon id="spoly_106" class="is-sec" data-sectionid="106" data-angle="0" points="295.66,336.74 286.99,347.95 277.48,347.95 273.56,366.43 331.75,377.63 334.83,373.15 295.66,336.74 "></polygon>
    <polygon id="spoly_107" class="is-sec" data-sectionid="107" data-angle="0" points="272.72,369.79 267.97,391.92 327.83,401.44 330.91,381 272.72,369.79 "></polygon>
    <polygon id="spoly_108" class="is-sec" data-sectionid="108" data-angle="0" points="267.13,395.28 263.49,412.36 272.44,434.76 330.63,413.76 328.39,404.8 267.13,395.28 "></polygon>
    <polygon id="spoly_109" class="is-sec" data-sectionid="109" data-angle="0" points="273.56,437.84 288.95,476.48 365.32,447.36 332.03,416.84 273.56,437.84 "></polygon>
    <polygon id="spoly_110" class="is-sec" data-sectionid="110" data-angle="0" points="290.35,479.56 306.29,519.59 405.04,483.2 368.12,449.88 290.35,479.56 "></polygon>
    <polygon id="spoly_111" class="is-sec" data-sectionid="111" data-angle="0" points="307.41,522.67 320.28,555.15 429.94,513.44 425.74,501.96 407.84,485.72 307.41,522.67 "></polygon>
    <polygon id="spoly_112" class="is-sec" data-sectionid="112" data-angle="0" points="321.4,558.23 332.87,587.06 442.53,549.27 431.06,516.51 321.4,558.23 "></polygon>
    <polygon id="spoly_113" class="is-sec" data-sectionid="113" data-angle="0" points="349.65,584.82 363.92,624 451.48,574.18 443.65,552.35 349.65,584.82 "></polygon>
    <polygon id="spoly_114" class="is-sec" data-sectionid="114" data-angle="0" points="365.6,626.8 380.7,647.51 457.91,592.37 452.6,577.54 365.6,626.8 "></polygon>
    <polygon id="spoly_115" class="is-sec" data-sectionid="115" data-angle="0" points="382.66,650.31 399.73,674.1 466.59,627.92 448.68,603.01 382.66,650.31 "></polygon>
    <polygon id="spoly_116" class="is-sec" data-sectionid="116" data-angle="0" points="401.69,676.62 418.75,699.85 483.37,651.43 468.55,630.72 401.69,676.62 "></polygon>
    <polygon id="spoly_117" class="is-sec" data-sectionid="117" data-angle="0" points="420.71,702.36 437.21,725.03 501.56,676.34 485.33,653.95 420.71,702.36 "></polygon>
    <polygon id="spoly_118" class="is-sec" data-sectionid="118" data-angle="0" points="439.17,727.83 454,747.98 512.75,692.01 503.51,679.14 439.17,727.83 "></polygon>
    <polygon id="spoly_119" class="is-sec" data-sectionid="119" data-angle="0" points="456.24,750.5 481.41,770.08 516.38,720.27 513.03,718.6 522.54,705.72 514.7,694.81 456.24,750.5 "></polygon>
    <polygon id="spoly_120" class="is-sec" data-sectionid="120" data-angle="0" points="484.21,772.04 510.79,786.87 534.29,730.07 519.18,721.95 484.21,772.04 "></polygon>
    <polygon id="spoly_121" class="is-sec" data-sectionid="121" data-angle="0" points="513.86,787.99 543.24,798.06 556.11,738.74 537.36,731.47 513.86,787.99 "></polygon>
    <polygon id="spoly_122" class="is-sec" data-sectionid="122" data-angle="0" points="553.31,768.96 546.6,798.06 571.21,801.7 572.89,771.2 553.31,768.96 "></polygon>
    <polygon id="spoly_123" class="is-sec" data-sectionid="123" data-angle="0" points="574.29,801.98 600.03,803.66 600.03,771.2 576.25,771.2 574.29,801.98 "></polygon>
    <polygon id="spoly_124" class="is-sec" data-sectionid="124" data-angle="0" points="603.38,818.21 636.11,815.13 620.73,769.24 603.38,770.92 603.38,818.21 "></polygon>
    <polygon id="spoly_125" class="is-sec" data-sectionid="125" data-angle="0" points="639.47,814.29 670.24,805.34 646.75,763.09 624.09,768.68 639.47,814.29 "></polygon>
    <polygon id="spoly_126" class="is-sec" data-sectionid="126" data-angle="0" points="673.32,803.94 701.02,789.67 685.91,767.29 680.31,770.08 668.57,752.73 650.1,761.97 673.32,803.94 "></polygon>
    <polygon id="spoly_127" class="is-sec" data-sectionid="127" data-angle="0" points="649.54,703.48 712.77,785.75 733.75,762.25 659.89,688.65 649.54,703.48 "></polygon>
    <polygon id="spoly_128" class="is-sec" data-sectionid="128" data-angle="0" points="736.26,759.73 755.85,738.18 671.08,672.7 661.85,685.85 736.26,759.73 "></polygon>
    <polygon id="spoly_129" class="is-sec" data-sectionid="129" data-angle="0" points="758.09,735.67 776.27,709.36 690.95,644.15 673.04,669.9 758.09,735.67 "></polygon>
    <polygon id="spoly_130" class="is-sec" data-sectionid="130" data-angle="0" points="778.23,706.56 795.85,681.1 704.93,624 692.62,641.63 778.23,706.56 "></polygon>
    <polygon id="spoly_131" class="is-sec" data-sectionid="131" data-angle="0" points="797.81,678.3 817.39,650.31 817.39,650.31 722.84,598.53 706.89,621.2 797.81,678.3 "></polygon>
    <polygon id="spoly_132" class="is-sec" data-sectionid="132" data-angle="0" points="818.79,647.23 831.94,620.64 723.4,564.1 711.65,588.74 818.79,647.23 "></polygon>
    <polygon id="spoly_133" class="is-sec" data-sectionid="133" data-angle="0" points="833.34,617.57 848.16,587.34 736.82,536.39 725.07,561.02 833.34,617.57 "></polygon>
    <polygon id="spoly_134" class="is-sec" data-sectionid="134" data-angle="0" points="849.84,584.54 864.67,554.03 749.69,509.52 738.22,533.31 849.84,584.54 "></polygon>
    <polygon id="spoly_135" class="is-sec" data-sectionid="135" data-angle="0" points="866.07,550.95 876.14,520.99 763.68,480.68 751.09,506.72 866.07,550.95 "></polygon>
    <polygon id="spoly_136" class="is-sec" data-sectionid="136" data-angle="0" points="877.26,517.63 890.69,477.6 796.69,448.76 766.48,478.16 877.26,517.63 "></polygon>
    <polygon id="spoly_137" class="is-sec" data-sectionid="137" data-angle="0" points="891.53,474.24 901.32,433.36 819.07,427.48 799.49,446.24 891.53,474.24 "></polygon>
    <polygon id="spoly_138" class="is-sec" data-sectionid="138" data-angle="0" points="901.88,430 899.36,397.52 837.25,403.96 822.15,424.4 901.88,430 "></polygon>
    <polygon id="spoly_139" class="is-sec" data-sectionid="139" data-angle="0" points="898.8,394.44 883.41,342.91 831.94,389.96 836.41,400.6 898.8,394.44 "></polygon>
    <polygon id="spoly_140" class="is-sec" data-sectionid="140" data-angle="0" points="809,355.79 875.58,303.69 860.75,287.45 798.09,342.07 806.2,352.15 809,355.79 809,355.79 "></polygon>
    <polygon id="spoly_141" class="is-sec" data-sectionid="141" data-angle="0" points="858.24,284.92 841.73,268.96 824.95,253.83 769.55,312.1 784.38,327.22 795.85,339.55 858.24,284.92 858.24,284.92 "></polygon>
    <polygon id="spoly_142" class="is-sec" data-sectionid="142" data-angle="0" points="822.43,251.59 804.52,237.3 786.9,224.13 739.34,286.33 754.17,298.37 767.04,309.86 822.43,251.59 822.43,251.59 "></polygon>
    <polygon id="spoly_143" class="is-sec" data-sectionid="143" data-angle="0" points="784.1,222.17 764.8,209 747.17,197.79 706.05,262.23 722.28,273.16 736.82,284.08 784.1,222.17 784.1,222.17 "></polygon>
    <polygon id="spoly_144" class="is-sec" data-sectionid="144" data-angle="0" points="744.38,196.11 719.48,181.82 706.33,174.81 671.64,241.5 687.87,250.75 703.25,260.27 744.38,196.11 744.38,196.11 "></polygon>
    <polygon id="spoly_145" class="is-sec" data-sectionid="145" data-angle="0" points="683.11,211.8 647.3,196.39 635,223.57 652.34,231.41 668.57,239.82 683.11,211.8 683.11,211.8 "></polygon>
    <polygon id="spoly_146" class="is-sec" data-sectionid="146" data-angle="0" points="644.23,195.27 623.81,186.58 611.5,214.04 631.92,222.17 644.23,195.27 644.23,195.27 "></polygon>
    <polygon id="spoly_220" class="is-sec" data-sectionid="220" data-angle="0" points="486.45,820.45 497.92,825.49 502.36,827.28 509.67,809.26 494.84,802.54 486.45,820.45 486.45,820.45 "></polygon>
    <polygon id="spoly_221" class="is-sec" data-sectionid="221" data-angle="0" points="509.67,830.24 521.7,834.44 533.73,838.36 539.32,819.61 525.33,815.13 511.91,810.1 504.54,828.1 "></polygon>
    <polygon id="spoly_222" class="is-sec" data-sectionid="222" data-angle="0" points="535.96,838.92 552.19,842.83 568.42,845.91 570.09,826.32 555.55,823.81 541.56,820.17 535.96,838.92 535.96,838.92 "></polygon>
    <polygon id="spoly_223" class="is-sec" data-sectionid="223" data-angle="0" points="570.65,846.19 586.32,848.15 602.27,848.99 602.27,829.4 587.16,828.56 572.33,826.88 570.65,846.19 570.65,846.19 "></polygon>
    <polygon id="spoly_224" class="is-sec" data-sectionid="224" data-angle="0" points="604.5,849.27 619.33,848.99 634.16,847.87 632.2,828.56 618.49,829.4 604.5,829.68 604.5,849.27 604.5,849.27 "></polygon>
    <polygon id="spoly_225" class="is-sec" data-sectionid="225" data-angle="0" points="636.39,847.59 651.5,845.35 666.61,841.99 662.41,822.97 648.42,826.05 634.44,828.28 636.39,847.59 636.39,847.59 "></polygon>
    <polygon id="spoly_226" class="is-sec" data-sectionid="226" data-angle="0" points="668.85,841.43 683.95,836.68 698.78,830.52 689.83,813.17 677.52,818.21 664.65,822.41 668.85,841.43 668.85,841.43 "></polygon>
    <polygon id="spoly_227" class="is-sec" data-sectionid="227" data-angle="0" points="700.74,829.68 714.72,822.41 728.15,813.73 715.84,798.34 704.09,805.9 692.06,812.06 700.74,829.68 700.74,829.68 "></polygon>
    <polygon id="spoly_228" class="is-sec" data-sectionid="228" data-angle="0" points="729.83,812.61 737.66,806.74 744.94,800.3 732.07,785.75 725.07,791.63 717.8,797.23 729.83,812.61 729.83,812.61 "></polygon>
    <polygon id="spoly_301" class="is-sec" data-sectionid="301" data-angle="0" points="758.36,756.37 741.58,775.96 735.15,782.96 770.95,818.77 785.22,804.22 798.65,789.67 758.36,756.37 758.36,756.37 "></polygon>
    <polygon id="spoly_302" class="is-sec" data-sectionid="302" data-angle="0" points="783.82,724.19 760.6,753.57 800.89,787.15 813.76,772.32 825.5,757.49 783.82,724.19 783.82,724.19 "></polygon>
    <polygon id="spoly_303" class="is-sec" data-sectionid="303" data-angle="0" points="807.04,691.73 785.78,721.39 827.74,754.97 840.61,737.62 852.08,720.83 807.04,691.73 807.04,691.73 "></polygon>
    <polygon id="spoly_304" class="is-sec" data-sectionid="304" data-angle="0" points="829.98,655.91 819.35,672.98 809,688.93 854.04,718.04 865.79,699.57 876.14,681.94 829.98,655.91 829.98,655.91 "></polygon>
    <polygon id="spoly_305" class="is-sec" data-sectionid="305" data-angle="0" points="851.52,617.01 841.73,635.48 831.66,653.11 877.54,678.86 887.89,659.27 896.28,641.08 851.52,617.01 851.52,617.01 "></polygon>
    <polygon id="spoly_306" class="is-sec" data-sectionid="306" data-angle="0" points="870.82,575.3 862.43,594.89 853.2,614.21 897.68,638 907.47,613.09 913.63,594.33 870.82,575.3 870.82,575.3 "></polygon>
    <polygon id="spoly_307" class="is-sec" data-sectionid="307" data-angle="0" points="881.73,546.19 872.22,572.22 914.74,590.97 917.54,579.22 904.11,554.03 881.73,546.19 881.73,546.19 "></polygon>
    <polygon id="spoly_401" class="is-sec" data-sectionid="401" data-angle="0" points="422.67,195.27 435.26,182.66 403.36,126.05 377.91,150.99 422.67,195.27 "></polygon>
    <polygon id="spoly_402" class="is-sec" data-sectionid="402" data-angle="0" points="389.1,229.17 420.43,197.51 375.67,153.51 343.78,184.62 389.1,229.17 "></polygon>
    <polygon id="spoly_403" class="is-sec" data-sectionid="403" data-angle="0" points="355.81,262.79 386.58,231.69 341.54,187.14 329.51,198.91 312.73,193.87 300.14,206.76 355.81,262.79 "></polygon>
    <polygon id="spoly_404" class="is-sec" data-sectionid="404" data-angle="0" points="323.36,295.57 353.57,265.03 297.62,209.28 267.41,240.1 323.36,295.57 "></polygon>
    <polygon id="spoly_405" class="is-sec" data-sectionid="405" data-angle="0" points="290.35,328.62 320.84,298.09 265.17,242.62 235.51,272.6 290.35,328.62 "></polygon>
    <polygon id="spoly_406" class="is-sec" data-sectionid="406" data-angle="0" points="271.32,347.95 288.11,331.14 233.28,275.12 220.97,287.45 229.36,296.97 225.44,301.45 271.32,347.95 "></polygon>
    <polygon id="spoly_411" class="is-sec" data-sectionid="411" data-angle="0" points="158.3,487.12 174.25,528.27 224.6,507.84 208.94,467.24 158.3,487.12 "></polygon>
    <polygon id="spoly_412" class="is-sec" data-sectionid="412" data-angle="0" points="175.37,531.35 191.03,571.38 241.39,551.79 225.72,510.92 175.37,531.35 "></polygon>
    <polygon id="spoly_413" class="is-sec" data-sectionid="413" data-angle="0" points="192.15,574.46 208.1,615.33 258.45,595.73 242.51,554.87 192.15,574.46 "></polygon>
    <polygon id="spoly_414" class="is-sec" data-sectionid="414" data-angle="0" points="209.22,618.4 225.16,659.27 275.52,640.24 259.57,599.09 209.22,618.4 "></polygon>
    <polygon id="spoly_415" class="is-sec" data-sectionid="415" data-angle="0" points="226.28,662.35 237.19,690.61 243.91,700.13 290.07,669.9 282.51,658.71 276.64,643.31 226.28,662.35 "></polygon>
    <polygon id="spoly_416" class="is-sec" data-sectionid="416" data-angle="0" points="245.87,702.64 270.2,737.34 315.24,707.68 292.02,672.7 245.87,702.64 "></polygon>
    <polygon id="spoly_417" class="is-sec" data-sectionid="417" data-angle="0" points="272.16,740.14 299.02,778.2 342.66,748.82 316.92,710.48 272.16,740.14 "></polygon>
    <polygon id="spoly_418" class="is-sec" data-sectionid="418" data-angle="0" points="300.98,780.72 322.52,811.5 363.64,780.44 344.62,751.62 300.98,780.72 "></polygon>
    <polygon id="spoly_419" class="is-sec" data-sectionid="419" data-angle="0" points="324.47,814.01 346.3,845.07 384.34,811.5 365.6,783.24 324.47,814.01 "></polygon>
    <polygon id="spoly_420" class="is-sec" data-sectionid="420" data-angle="0" points="422.39,882 439.17,889.56 455.68,895.99 464.07,875.29 447.84,868.85 431.34,861.86 422.39,882 422.39,882 "></polygon>
    <polygon id="spoly_421" class="is-sec" data-sectionid="421" data-angle="0" points="458.47,897.11 478.62,904.39 498.48,910.54 504.91,889 486.17,883.12 466.87,876.41 458.47,897.11 458.47,897.11 "></polygon>
    <polygon id="spoly_422" class="is-sec" data-sectionid="422" data-angle="0" points="501.28,911.38 521.14,916.7 540.72,920.89 544.92,898.79 526.45,894.87 507.71,889.84 501.28,911.38 501.28,911.38 "></polygon>
    <polygon id="spoly_423" class="is-sec" data-sectionid="423" data-angle="0" points="543.24,921.45 564.22,924.81 584.36,926.77 585.76,904.11 567.02,902.15 547.43,899.35 543.24,921.45 543.24,921.45 "></polygon>
    <polygon id="spoly_424" class="is-sec" data-sectionid="424" data-angle="0" points="587.16,927.05 611.22,927.89 634.16,927.05 633.32,904.39 611.5,905.22 588.56,904.39 587.16,927.05 587.16,927.05 "></polygon>
    <polygon id="spoly_425" class="is-sec" data-sectionid="425" data-angle="0" points="636.95,926.77 648.7,925.65 660.17,923.97 682.55,919.49 677.52,897.39 657.1,901.31 636.11,904.11 636.95,926.77 636.95,926.77 "></polygon>
    <polygon id="spoly_426" class="is-sec" data-sectionid="426" data-angle="0" points="685.35,918.93 707.17,912.5 728.15,904.39 719.48,883.4 700.18,890.68 680.31,896.55 685.35,918.93 685.35,918.93 "></polygon>
    <polygon id="spoly_427" class="is-sec" data-sectionid="427" data-angle="0" points="730.95,903.27 750.81,893.75 769.83,882.56 757.53,863.54 740.18,873.61 722.28,882.28 730.95,903.27 730.95,903.27 "></polygon>
    <polygon id="spoly_428" class="is-sec" data-sectionid="428" data-angle="0" points="772.35,881.16 790.82,868.29 808.44,854.02 795.01,836.12 777.95,849.83 760.04,862.14 772.35,881.16 772.35,881.16 "></polygon>
    <polygon id="spoly_429" class="is-sec" data-sectionid="429" data-angle="0" points="810.68,852.35 827.46,836.96 843.41,820.45 826.9,805.34 812.36,820.45 796.97,834.44 810.68,852.35 810.68,852.35 "></polygon>
    <polygon id="spoly_430" class="is-sec" data-sectionid="430" data-angle="0" points="845.37,818.21 859.35,802.26 872.78,785.47 855.16,771.76 842.29,787.99 828.86,803.38 845.37,818.21 845.37,818.21 "></polygon>
    <polygon id="spoly_431" class="is-sec" data-sectionid="431" data-angle="0" points="874.46,783.24 888.17,763.93 901.6,743.78 882.85,732.03 869.98,751.34 856.84,769.52 874.46,783.24 874.46,783.24 "></polygon>
    <polygon id="spoly_432" class="is-sec" data-sectionid="432" data-angle="0" points="902.99,741.54 916.42,719.16 929.29,695.93 909.71,685.29 897.4,707.96 884.25,729.51 902.99,741.54 902.99,741.54 "></polygon>
    <polygon id="spoly_433" class="is-sec" data-sectionid="433" data-angle="0" points="930.69,693.41 942.44,669.9 953.63,645.83 933.77,636.32 922.58,659.83 911.11,682.78 930.69,693.41 930.69,693.41 "></polygon>
    <polygon id="spoly_434" class="is-sec" data-sectionid="434" data-angle="0" points="955.03,643.31 964.82,620.64 974.33,597.41 953.35,590.14 944.12,611.97 934.89,633.8 955.03,643.31 955.03,643.31 "></polygon>
    <polygon id="spoly_435" class="is-sec" data-sectionid="435" data-angle="0" points="975.45,594.89 991.12,552.91 970.13,545.63 954.47,587.34 975.45,594.89 975.45,594.89 "></polygon>
    <polygon id="spoly_436" class="is-sec" data-sectionid="436" data-angle="0" points="992.23,550.39 1005.94,509.8 984.96,502.24 970.97,542.83 992.23,550.39 992.23,550.39 "></polygon>
    <polygon id="spoly_437" class="is-sec" data-sectionid="437" data-angle="0" points="1006.78,507 1017.69,472.28 996.43,465.56 985.8,499.72 1006.78,507 1006.78,507 "></polygon>
    <polygon id="spoly_509" class="is-sec" data-sectionid="509" data-angle="0" points="137.6,444.28 142.64,424.68 68.78,405.64 55.08,441.2 137.6,444.28 "></polygon>
    <polygon id="spoly_510" class="is-sec" data-sectionid="510" data-angle="0" points="147.95,479.56 136.48,448.76 136.76,447.64 53.68,444.56 44.17,468.92 57.03,505.32 147.95,479.56 "></polygon>
    <polygon id="spoly_511" class="is-sec" data-sectionid="511" data-angle="0" points="166.42,529.11 149.07,482.64 58.15,508.4 76.34,560.18 166.42,529.11 "></polygon>
    <polygon id="spoly_512" class="is-sec" data-sectionid="512" data-angle="0" points="183.48,574.74 167.82,532.19 77.46,563.26 93.12,607.49 183.48,574.74 "></polygon>
    <polygon id="spoly_513" class="is-sec" data-sectionid="513" data-angle="0" points="199.15,616.73 184.6,577.82 94.24,610.85 107.95,649.75 199.15,616.73 "></polygon>
    <polygon id="spoly_514" class="is-sec" data-sectionid="514" data-angle="0" points="216.21,662.35 200.55,619.8 109.07,652.83 124.73,697.61 216.21,662.35 "></polygon>
    <polygon id="spoly_515" class="is-sec" data-sectionid="515" data-angle="0" points="232.44,697.89 217.61,665.42 126.13,700.69 154.39,750.78 232.44,697.89 "></polygon>
    <polygon id="spoly_516" class="is-sec" data-sectionid="516" data-angle="0" points="259.29,739.86 234.12,700.97 156.07,753.57 183.48,793.03 259.29,739.86 "></polygon>
    <polygon id="spoly_517" class="is-sec" data-sectionid="517" data-angle="0" points="287.27,782.96 261.25,742.66 185.44,795.83 213.13,835.56 287.27,782.96 "></polygon>
    <polygon id="spoly_518" class="is-sec" data-sectionid="518" data-angle="0" points="314.4,824.65 288.95,785.75 215.09,838.36 243.91,879.76 314.4,824.65 "></polygon>
    <polygon id="spoly_519" class="is-sec" data-sectionid="519" data-angle="0" points="270.76,918.37 335.11,856.82 316.08,827.44 245.87,882.56 270.76,918.37 "></polygon>
    <polygon id="spoly_520" class="is-sec" data-sectionid="520" data-angle="0" points="453.72,911.94 412.88,897.11 372.03,979.36 427.98,997.27 453.72,911.94 "></polygon>
    <polygon id="spoly_521" class="is-sec" data-sectionid="521" data-angle="0" points="497.92,926.49 456.8,913.06 431.06,998.39 478.9,1012.93 479.74,1012.93 497.92,926.49 "></polygon>
    <polygon id="spoly_522" class="is-sec" data-sectionid="522" data-angle="0" points="539.32,936.84 539.32,936.84 501,927.33 483.09,1013.77 534.29,1023 539.32,936.84 "></polygon>
    <polygon id="spoly_523" class="is-sec" data-sectionid="523" data-angle="0" points="588.28,939.64 587.44,939.64 542.68,937.12 537.64,1023.28 588.28,1026.36 588.28,939.64 "></polygon>
    <polygon id="spoly_524" class="is-sec" data-sectionid="524" data-angle="0" points="644.51,1026.36 641.38,939.56 591.63,939.64 591.63,1026.36 644.51,1026.36 "></polygon>
    <polygon id="spoly_525" class="is-sec" data-sectionid="525" data-angle="0" points="688.99,932.36 644.79,938.8 647.86,1026.36 647.86,1026.36 647.86,1026.36 647.86,1026.36 709.41,1020.21 688.99,932.36 "></polygon>
    <polygon id="spoly_526" class="is-sec" data-sectionid="526" data-angle="0" points="730.67,919.49 692.34,931.52 712.77,1019.65 772.35,1001.18 730.67,919.49 "></polygon>
    <polygon id="spoly_527" class="is-sec" data-sectionid="527" data-angle="0" points="772.07,897.67 733.75,918.37 775.15,999.51 823.55,969.85 772.07,897.67 "></polygon>
    <polygon id="spoly_528" class="is-sec" data-sectionid="528" data-angle="0" points="816.27,866.89 815.71,867.45 774.87,895.99 826.34,968.17 871.38,937.12 816.27,866.89 "></polygon>
    <polygon id="spoly_529" class="is-sec" data-sectionid="529" data-angle="0" points="853.76,829.96 818.51,864.66 874.18,935.16 914.46,897.39 853.76,829.96 "></polygon>
    <polygon id="spoly_530" class="is-sec" data-sectionid="530" data-angle="0" points="856,827.72 856,827.72 916.98,894.87 956.15,851.79 957.27,850.39 880.34,797.51 856,827.72 856,827.72 "></polygon>
    <polygon id="spoly_531" class="is-sec" data-sectionid="531" data-angle="0" points="909.71,753.85 882.29,794.99 958.94,847.59 990.84,802.54 909.71,753.85 "></polygon>
    <polygon id="spoly_532" class="is-sec" data-sectionid="532" data-angle="0" points="939.08,706 911.39,750.78 992.51,799.74 1016.57,749.66 939.08,706 "></polygon>
    <polygon id="spoly_533" class="is-sec" data-sectionid="533" data-angle="0" points="960.34,655.07 941.04,703.2 1017.97,746.58 1018.81,744.9 1037.83,690.33 960.34,655.07 "></polygon>
    <polygon id="spoly_534" class="is-sec" data-sectionid="534" data-angle="0" points="981.88,601.89 961.74,651.99 1038.95,687.25 1057.98,632.4 981.88,601.89 "></polygon>
    <polygon id="spoly_535" class="is-sec" data-sectionid="535" data-angle="0" points="999.23,554.87 983,598.81 1059.09,629.32 1076.16,580.62 999.23,554.87 "></polygon>
    <polygon id="spoly_536" class="is-sec" data-sectionid="536" data-angle="0" points="1008.18,523.79 1000.07,551.51 1077.28,577.26 1089.87,541.43 1008.18,523.79 "></polygon>
    <polygon id="spoly_537" class="is-sec" data-sectionid="537" data-angle="0" points="1016.57,495.52 1009.3,520.71 1090.99,538.07 1100.78,510.08 1016.57,495.52 "></polygon>
    <polygon id="spoly_SRO" class="is-sec" data-sectionid="SRO" data-angle="0" points="625.22,183.97 684.04,209.17 693.64,190.27 634.52,163.56 634.52,163.56 634.52,163.56 "></polygon>
    <polygon id="spoly_handlebar_sro" class="is-sec" data-sectionid="handlebar_sro" data-angle="0" points="923.22,576.8 965.54,454.66 986.54,461.86 944.23,584.01 "></polygon>
    <polygon id="spoly_handlebar_rail" class="is-sec" data-sectionid="handlebar_rail" data-angle="0" points="920.82,570.8 961.63,453.76 942.73,447.16 907.92,544.69 "></polygon>
    <polygon id="spoly_district" class="is-sec" data-sectionid="district" data-angle="0" points="207.81,464.19 203.61,453.24 179.03,462.2 172.32,446.56 179.3,400.87 154.46,396.4 144.86,452.67 157.24,484.03 157.24,484.03 157.24,484.03 "></polygon>
    <polygon id="spoly_press_club" class="is-sec" data-sectionid="press_club" data-angle="0" points="483.12,819.02 463.61,808.82 450.4,797.41 450.4,797.41 442,787.81 437.2,782.11 446.5,773.71 454.01,781.81 459.71,789.31 471.11,798.62 488.52,806.72 "></polygon>
    <polygon class="is-d epoly_upper_level_suites_dynamics" points="744.74,810.13 734.01,817.49 721.43,825.16 704.56,834.05 684.32,842.95 672.97,846.93 661.01,850.61 648.13,853.68 634.94,856.13 621.13,857.67 607.03,858.28 585.86,857.36 566.23,855.21 547.83,852.15 530.96,847.85 515.32,842.95 501.21,837.12 488.32,831.29 476.67,825.16 466.55,819.02 457.96,812.89 444.46,802.46 436.18,794.79 433.73,792.03 330.67,643.26 251.84,430.35 219.33,440.17 297.24,651.54 404.9,811.35 407.96,814.73 417.17,823.62 423.91,829.76 432.5,836.5 442.62,843.56 454.28,850.92 467.77,858.28 482.5,865.64 499.06,872.08 517.46,878.22 537.4,883.13 558.87,887.11 582.18,889.57 607.03,890.49 624.2,889.87 640.46,888.03 656.1,885.27 670.82,881.29 684.63,876.99 697.2,872.08 709.16,866.56 719.9,861.04 738,850.31 751.49,840.8 759.77,834.36 762.53,831.6 744.74,810.13 744.74,810.13 " style="fill:#F4F4F4; stroke:#BEBEBE; stroke-width:1; fill-opacity:1.0;"></polygon>
    <polygon class="is-d epoly_bench_visitor" points="450.4,601.86 522.13,699.4 538.04,684.99 468.11,588.66 " style="fill:#DDD; stroke:#DDD; stroke-width:0; fill-opacity:1.0;"></polygon>
    <polygon class="is-d epoly_bench_home" points="719,597.96 648.17,698.8 629.57,685.59 699.79,586.56 " style="fill:#C70220; stroke:#000; stroke-width:0; fill-opacity:1;"></polygon>
    <polygon class="is-d epoly_standing_room" points="361.72,890.34 " style="fill:#; stroke:#; stroke-width:0; fill-opacity:0.0;"></polygon>
    <polygon class="is-d epoly_lower_level_suites" points="339.52,642.83 430.75,770.07 448.75,756.87 357.52,632.02 " style="fill:#F4F4F4; stroke:#BEBEBE; stroke-width:1; fill-opacity:1.0;"></polygon>
    <polygon class="is-d epoly_pavilion" points="492.12,169.26 497.22,191.47 617.56,163.86 612.46,141.95 " style="fill:#F4F4F4; stroke:#BEBEBE; stroke-width:1; fill-opacity:1.0;"></polygon>
    <polygon class="is-d epoly_stacks" points="637.37,161.76 692.89,186.67 702.49,166.56 648.17,142.25 " style="fill:#F4F4F4; stroke:#BEBEBE; stroke-width:1; fill-opacity:1.0;"></polygon>
    <polygon class="is-d epoly_deck" points="434.8,149.15 470.51,149.45 " style="fill:#; stroke:#; stroke-width:0; fill-opacity:0.0;"></polygon>
    <polygon class="is-d epoly_videoboard" points="194.41,258.69 214.52,279.1 381.38,115.24 360.97,95.13 " style="fill:#F4F4F4; stroke:#BEBEBE; stroke-width:1; fill-opacity:1.0;"></polygon>
    <polygon class="is-d epoly_sky_bar" points="155.1,391.04 179.41,395.54 187.81,342.12 164.4,338.82 " style="fill:#F4F4F4; stroke:#BEBEBE; stroke-width:1; fill-opacity:1.0;"></polygon>
    <polygon class="is-d epoly_party_suite" points="191.41,416.41 " style="fill:#; stroke:#; stroke-width:0; fill-opacity:0.0;"></polygon>
    <polygon class="is-d epoly_patio" points="211.07,326.78 " style="fill:#; stroke:#; stroke-width:0; fill-opacity:0.0;"></polygon>
    <polygon class="is-d epoly_super_suites" points="246.63,395.82 " style="fill:#; stroke:#; stroke-width:0; fill-opacity:0.0;"></polygon>
    <polygon class="is-d epoly_party_decks" points="881.81,538.39 902.21,544.99 935.23,447.16 914.22,440.56 " style="fill:#F4F4F4; stroke:#BEBEBE; stroke-width:1; fill-opacity:1.0;"></polygon>
    <polygon class="is-d epoly_outdoor_suite" points="387.53,848.46 " style="fill:#; stroke:#; stroke-width:0; fill-opacity:0.0;"></polygon>
  </g>
  <g id="svgsectionnames" style="opacity:1; font-size:15px;">
    <text class="is-sec" data-sectionid="1" text-anchor="middle" x="540.3" y="711.8">1</text>
    <text class="is-sec" data-sectionid="2" text-anchor="middle" x="560.4" y="718.9">2</text>
    <text class="is-sec" data-sectionid="3" text-anchor="middle" x="585.6" y="721.4">3</text>
    <text class="is-sec" data-sectionid="4" text-anchor="middle" x="610.7" y="718.9">4</text>
    <text class="is-sec" data-sectionid="5" text-anchor="middle" x="630.8" y="711.8">5</text>
    <text class="is-sec" data-sectionid="22" text-anchor="middle" x="568.1" y="752.8">22</text>
    <text class="is-sec" data-sectionid="23" text-anchor="middle" x="595.8" y="752.5">23</text>
    <text class="is-sec" data-sectionid="24" text-anchor="middle" x="625" y="749">24</text>
    <text class="is-sec" data-sectionid="25" text-anchor="middle" x="649.1" y="739.7">25</text>
    <text class="is-sec" data-sectionid="101" text-anchor="middle" x="450.8" y="218.2">101</text>
    <text class="is-sec" data-sectionid="102" text-anchor="middle" x="428.1" y="242.2">102</text>
    <text class="is-sec" data-sectionid="103" text-anchor="middle" x="396.2" y="274.6">103</text>
    <text class="is-sec" data-sectionid="104" text-anchor="middle" x="363.5" y="307.1">104</text>
    <text class="is-sec" data-sectionid="105" text-anchor="middle" x="331.5" y="339.6">105</text>
    <text class="is-sec" data-sectionid="106" text-anchor="middle" x="300.6" y="360.9">106</text>
    <text class="is-sec" data-sectionid="107" text-anchor="middle" x="297" y="386.2">107</text>
    <text class="is-sec" data-sectionid="108" text-anchor="middle" x="293.5" y="412.6">108</text>
    <text class="is-sec" data-sectionid="109" text-anchor="middle" x="309.2" y="446.8">109</text>
    <text class="is-sec" data-sectionid="110" text-anchor="middle" x="333.3" y="486.7">110</text>
    <text class="is-sec" data-sectionid="111" text-anchor="middle" x="355.5" y="523.4">111</text>
    <text class="is-sec" data-sectionid="112" text-anchor="middle" x="376" y="556.5">112</text>
    <text class="is-sec" data-sectionid="113" text-anchor="middle" x="395.2" y="588.5">113</text>
    <text class="is-sec" data-sectionid="114" text-anchor="middle" x="411.8" y="614.5">114</text>
    <text class="is-sec" data-sectionid="115" text-anchor="middle" x="424.6" y="640.6">115</text>
    <text class="is-sec" data-sectionid="116" text-anchor="middle" x="442.5" y="667.3">116</text>
    <text class="is-sec" data-sectionid="117" text-anchor="middle" x="461.1" y="691.5">117</text>
    <text class="is-sec" data-sectionid="118" text-anchor="middle" x="476" y="715.6">118</text>
    <text class="is-sec" data-sectionid="119" text-anchor="middle" x="489.4" y="734.4">119</text>
    <text class="is-sec" data-sectionid="120" text-anchor="middle" x="504.4" y="771">120</text>
    <text class="is-sec" data-sectionid="121" text-anchor="middle" x="533.2" y="782.5">121</text>
    <text class="is-sec" data-sectionid="122" text-anchor="middle" x="561.5" y="789.8">122</text>
    <text class="is-sec" data-sectionid="123" text-anchor="middle" x="587.8" y="793.7">123</text>
    <text class="is-sec" data-sectionid="124" text-anchor="middle" x="614.3" y="793.7">124</text>
    <text class="is-sec" data-sectionid="125" text-anchor="middle" x="646" y="789.3">125</text>
    <text class="is-sec" data-sectionid="126" text-anchor="middle" x="675" y="780.1">126</text>
    <text class="is-sec" data-sectionid="127" text-anchor="middle" x="692.8" y="739.4">127</text>
    <text class="is-sec" data-sectionid="128" text-anchor="middle" x="708.8" y="718.2">128</text>
    <text class="is-sec" data-sectionid="129" text-anchor="middle" x="724.7" y="691.9">129</text>
    <text class="is-sec" data-sectionid="130" text-anchor="middle" x="744.2" y="667.3">130</text>
    <text class="is-sec" data-sectionid="131" text-anchor="middle" x="762.1" y="640.4">131</text>
    <text class="is-sec" data-sectionid="132" text-anchor="middle" x="774.8" y="608.3">132</text>
    <text class="is-sec" data-sectionid="133" text-anchor="middle" x="788.4" y="578">133</text>
    <text class="is-sec" data-sectionid="134" text-anchor="middle" x="802" y="548.2">134</text>
    <text class="is-sec" data-sectionid="135" text-anchor="middle" x="816.6" y="517.7">135</text>
    <text class="is-sec" data-sectionid="136" text-anchor="middle" x="834" y="482.7">136</text>
    <text class="is-sec" data-sectionid="137" text-anchor="middle" x="850.4" y="452.9">137</text>
    <text class="is-sec" data-sectionid="138" text-anchor="middle" x="862" y="419.7">138</text>
    <text class="is-sec" data-sectionid="139" text-anchor="middle" x="866" y="382.9">139</text>
    <text class="is-sec" data-sectionid="140" text-anchor="middle" x="836.8" y="323.6">140</text>
    <text class="is-sec" data-sectionid="141" text-anchor="middle" x="813.9" y="298.7">141</text>
    <text class="is-sec" data-sectionid="142" text-anchor="middle" x="780.9" y="269">142</text>
    <text class="is-sec" data-sectionid="143" text-anchor="middle" x="745.1" y="242.9">143</text>
    <text class="is-sec" data-sectionid="144" text-anchor="middle" x="708" y="219.5">144</text>
    <text class="is-sec" data-sectionid="145" text-anchor="middle" x="659.1" y="220.1">145</text>
    <text class="is-sec" data-sectionid="146" text-anchor="middle" x="627.9" y="206.4">146</text>
    <text class="is-sec" data-sectionid="220" text-anchor="middle" x="498.6" y="815.1">220</text>
    <text class="is-sec" data-sectionid="221" text-anchor="middle" x="522.5" y="825.1">221</text>
    <text class="is-sec" data-sectionid="222" text-anchor="middle" x="553" y="835">222</text>
    <text class="is-sec" data-sectionid="223" text-anchor="middle" x="586.5" y="839.9">223</text>
    <text class="is-sec" data-sectionid="224" text-anchor="middle" x="619.3" y="840.9">224</text>
    <text class="is-sec" data-sectionid="225" text-anchor="middle" x="650.5" y="837.3">225</text>
    <text class="is-sec" data-sectionid="226" text-anchor="middle" x="681.7" y="829.3">226</text>
    <text class="is-sec" data-sectionid="227" text-anchor="middle" x="710.1" y="816">227</text>
    <text class="is-sec" data-sectionid="228" text-anchor="middle" x="731.4" y="801.2">228</text>
    <text class="is-sec" data-sectionid="301" text-anchor="middle" x="766.9" y="789.6">301</text>
    <text class="is-sec" data-sectionid="302" text-anchor="middle" x="793.1" y="757.7">302</text>
    <text class="is-sec" data-sectionid="303" text-anchor="middle" x="818.9" y="725.4">303</text>
    <text class="is-sec" data-sectionid="304" text-anchor="middle" x="842.6" y="689">304</text>
    <text class="is-sec" data-sectionid="305" text-anchor="middle" x="864" y="649.9">305</text>
    <text class="is-sec" data-sectionid="306" text-anchor="middle" x="883.4" y="608.6">306</text>
    <text class="is-sec" data-sectionid="307" text-anchor="middle" x="894.9" y="570.6">307</text>
    <text class="is-sec" data-sectionid="401" text-anchor="middle" x="406.6" y="162.7">401</text>
    <text class="is-sec" data-sectionid="402" text-anchor="middle" x="381.5" y="190.7">402</text>
    <text class="is-sec" data-sectionid="403" text-anchor="middle" x="346.4" y="223.1">403</text>
    <text class="is-sec" data-sectionid="404" text-anchor="middle" x="311.7" y="253.2">404</text>
    <text class="is-sec" data-sectionid="405" text-anchor="middle" x="279.4" y="283.9">405</text>
    <text class="is-sec" data-sectionid="406" text-anchor="middle" x="253.9" y="311.1">406</text>
    <text class="is-sec" data-sectionid="411" text-anchor="middle" x="181.9" y="500.8">411</text>
    <text class="is-sec" data-sectionid="412" text-anchor="middle" x="199.4" y="544.1">412</text>
    <text class="is-sec" data-sectionid="413" text-anchor="middle" x="217.5" y="587.9">413</text>
    <text class="is-sec" data-sectionid="414" text-anchor="middle" x="235.2" y="631.2">414</text>
    <text class="is-sec" data-sectionid="415" text-anchor="middle" x="254" y="671.9">415</text>
    <text class="is-sec" data-sectionid="416" text-anchor="middle" x="273.4" y="710.4">416</text>
    <text class="is-sec" data-sectionid="417" text-anchor="middle" x="300.8" y="748.9">417</text>
    <text class="is-sec" data-sectionid="418" text-anchor="middle" x="327.5" y="785.6">418</text>
    <text class="is-sec" data-sectionid="419" text-anchor="middle" x="349.6" y="817.5">419</text>
    <text class="is-sec" data-sectionid="420" text-anchor="middle" x="443.2" y="880.9">420</text>
    <text class="is-sec" data-sectionid="421" text-anchor="middle" x="481.7" y="895.5">421</text>
    <text class="is-sec" data-sectionid="422" text-anchor="middle" x="523.1" y="907.4">422</text>
    <text class="is-sec" data-sectionid="423" text-anchor="middle" x="564.5" y="915.1">423</text>
    <text class="is-sec" data-sectionid="424" text-anchor="middle" x="610.7" y="918.1">424</text>
    <text class="is-sec" data-sectionid="425" text-anchor="middle" x="659.3" y="914.1">425</text>
    <text class="is-sec" data-sectionid="426" text-anchor="middle" x="704.2" y="903.2">426</text>
    <text class="is-sec" data-sectionid="427" text-anchor="middle" x="746.1" y="885.4">427</text>
    <text class="is-sec" data-sectionid="428" text-anchor="middle" x="784.2" y="860.6">428</text>
    <text class="is-sec" data-sectionid="429" text-anchor="middle" x="820.2" y="830.8">429</text>
    <text class="is-sec" data-sectionid="430" text-anchor="middle" x="850.8" y="797">430</text>
    <text class="is-sec" data-sectionid="431" text-anchor="middle" x="879.2" y="759.6">431</text>
    <text class="is-sec" data-sectionid="432" text-anchor="middle" x="906.8" y="715.4">432</text>
    <text class="is-sec" data-sectionid="433" text-anchor="middle" x="932.4" y="666.9">433</text>
    <text class="is-sec" data-sectionid="434" text-anchor="middle" x="954.6" y="618.7">434</text>
    <text class="is-sec" data-sectionid="435" text-anchor="middle" x="972.8" y="572.3">435</text>
    <text class="is-sec" data-sectionid="436" text-anchor="middle" x="988.5" y="528.3">436</text>
    <text class="is-sec" data-sectionid="437" text-anchor="middle" x="1001.7" y="488.3">437</text>
    <text class="is-sec" data-sectionid="509" text-anchor="middle" x="92.9" y="435.1">509</text>
    <text class="is-sec" data-sectionid="510" text-anchor="middle" x="93.7" y="471.4">510</text>
    <text class="is-sec" data-sectionid="511" text-anchor="middle" x="108.7" y="519.7">511</text>
    <text class="is-sec" data-sectionid="512" text-anchor="middle" x="125.1" y="570.3">512</text>
    <text class="is-sec" data-sectionid="513" text-anchor="middle" x="142.5" y="615.8">513</text>
    <text class="is-sec" data-sectionid="514" text-anchor="middle" x="159" y="659.9">514</text>
    <text class="is-sec" data-sectionid="515" text-anchor="middle" x="176.9" y="708.3">515</text>
    <text class="is-sec" data-sectionid="516" text-anchor="middle" x="202.3" y="749.9">516</text>
    <text class="is-sec" data-sectionid="517" text-anchor="middle" x="232.8" y="794.7">517</text>
    <text class="is-sec" data-sectionid="518" text-anchor="middle" x="261.1" y="836.9">518</text>
    <text class="is-sec" data-sectionid="519" text-anchor="middle" x="285.7" y="875.8">519</text>
    <text class="is-sec" data-sectionid="520" text-anchor="middle" x="412.9" y="949.2">520</text>
    <text class="is-sec" data-sectionid="521" text-anchor="middle" x="467.5" y="962.8">521</text>
    <text class="is-sec" data-sectionid="522" text-anchor="middle" x="515.4" y="975.7">522</text>
    <text class="is-sec" data-sectionid="523" text-anchor="middle" x="565.4" y="982">523</text>
    <text class="is-sec" data-sectionid="524" text-anchor="middle" x="618.7" y="982.1">524</text>
    <text class="is-sec" data-sectionid="525" text-anchor="middle" x="674.8" y="979.4">525</text>
    <text class="is-sec" data-sectionid="526" text-anchor="middle" x="729.9" y="969.3">526</text>
    <text class="is-sec" data-sectionid="527" text-anchor="middle" x="778" y="948.9">527</text>
    <text class="is-sec" data-sectionid="528" text-anchor="middle" x="823.1" y="918.6">528</text>
    <text class="is-sec" data-sectionid="529" text-anchor="middle" x="866.5" y="884.3">529</text>
    <text class="is-sec" data-sectionid="530" text-anchor="middle" x="907.2" y="845.4">530</text>
    <text class="is-sec" data-sectionid="531" text-anchor="middle" x="939" y="801.5">531</text>
    <text class="is-sec" data-sectionid="532" text-anchor="middle" x="966.4" y="753.9">532</text>
    <text class="is-sec" data-sectionid="533" text-anchor="middle" x="989.4" y="702.8">533</text>
    <text class="is-sec" data-sectionid="534" text-anchor="middle" x="1009.9" y="646.6">534</text>
    <text class="is-sec" data-sectionid="535" text-anchor="middle" x="1029.6" y="594.1">535</text>
    <text class="is-sec" data-sectionid="536" text-anchor="middle" x="1045" y="552.5">536</text>
    <text class="is-sec" data-sectionid="537" text-anchor="middle" x="1055" y="518.8">537</text>
    <text class="is-sec" data-sectionid="SRO" text-anchor="middle" x="655.8" y="192.7" transform="rotate(384.113 655.8 192.7)">SRO</text>
    <text class="is-sec" data-sectionid="handlebar_sro" text-anchor="middle" x="959.7" y="516.3" transform="rotate(291 959.7 516.3)">Handlebar</text>
    <text class="is-sec" data-sectionid="handlebar_rail" text-anchor="middle" x="936" y="506.3" transform="rotate(291 936 506.3)">Rail</text>
    <text class="is-sec" data-sectionid="district" text-anchor="middle" x="163.3" y="447.6" transform="rotate(-79.3071 163.3 447.6)">District</text>
    <text class="is-sec" data-sectionid="press_club" text-anchor="middle" x="462.9" y="798.4" transform="rotate(36.3562 462.9 798.4)">PRESS</text>
    <text class="is-d undefined" text-anchor="middle" x="372.1" y="734" style="fill:#999; font-size:12.7px; " data-offset="0|0.3" transform="rotate(54 372.1 734)">UPPER LEVEL SUITES</text>
    <text class="is-d dyn-name-bench rotated" text-anchor="middle" x="491.8" y="644.4" style="fill:#666; font-size:12.7px; " data-offset="0|0.3" transform="rotate(56 491.8 644.4)">VISITOR</text>
    <text class="is-d dyn-name-bench rotated" text-anchor="middle" x="669.5" y="646.6" style="fill:#FFF; font-size:12.7px; " data-offset="0|0.3" transform="rotate(306 669.5 646.6)">REDS</text>
    <text class="is-d undefined" text-anchor="middle" x="361.7" y="900.2" style="fill:#999; font-size:12.7px; " transform="rotate(39 361.7 900.2)">
      <tspan x="361.7" dy="-0.25em">STANDING</tspan>
      <tspan x="361.7" dy="1.2em">ROOM</tspan>
    </text>
    <text class="is-d undefined" text-anchor="middle" x="394.1" y="703.8" style="fill:#999; font-size:12.7px; " data-offset="0|0.3" transform="rotate(54 394.1 703.8)">LOWER LEVEL SUITES</text>
    <text class="is-d undefined" text-anchor="middle" x="554.8" y="168.7" style="fill:#999; font-size:12.7px; " data-offset="0|0.3" transform="rotate(347 554.8 168.7)">PAVILION</text>
    <text class="is-d undefined" text-anchor="middle" x="675.9" y="161.1" style="fill:#999; font-size:12.7px; " data-offset="0|0.3" transform="rotate(26 675.9 161.1)">STACKS</text>
    <text class="is-d undefined" text-anchor="middle" x="452.7" y="151.3" style="fill:#999; font-size:12.7px; " data-offset="0|0.3">DECK</text>
    <text class="is-d undefined" text-anchor="middle" x="285.5" y="185.4" style="fill:#999; font-size:12.7px; " data-offset="0|0.3" transform="rotate(316 285.5 185.4)">VIDEOBOARD</text>
    <text class="is-d undefined" text-anchor="middle" x="170.3" y="367.5" style="fill:#999; font-size:12.7px; " data-offset="0|0.3" transform="rotate(282 170.3 367.5)">SKY BAR</text>
    <text class="is-d undefined" text-anchor="middle" x="191.4" y="417.4" style="fill:#999; font-size:12.7px; " data-offset="0|0.3" transform="rotate(275 191.4 417.4)">PARTY SUITE</text>
    <text class="is-d undefined" text-anchor="middle" x="211.1" y="327.8" style="fill:#999; font-size:12.7px; " data-offset="0|0.3" transform="rotate(318 211.1 327.8)">PATIO</text>
    <text class="is-d undefined" text-anchor="middle" x="246.6" y="404.1" style="fill:#999; font-size:12.7px; " transform="rotate(291 246.6 404.1)">
      <tspan x="246.6" dy="-0.25em">SUPER</tspan>
      <tspan x="246.6" dy="1.2em">SUITES</tspan>
    </text>
    <text class="is-d undefined" text-anchor="middle" x="903.7" y="494.5" style="fill:#999; font-size:12.7px; " data-offset="0|0.3" transform="rotate(289 903.7 494.5)">PARTY DECKS</text>
    <text class="is-d undefined" text-anchor="middle" x="387.5" y="857.8" style="fill:#999; font-size:12.7px; " transform="rotate(39 387.5 857.8)">
      <tspan x="387.5" dy="-0.25em">OUTDOOR</tspan>
      <tspan x="387.5" dy="1.2em">SUITE</tspan>
    </text>
  </g>
  </svg>